HIERARCHY
ROOT Hips
{
	OFFSET -14.64140 90.27770 -84.91600
	CHANNELS 6 Xposition Yposition Zposition Zrotation Xrotation Yrotation
	JOINT Spine
	{
		OFFSET 0.00000 13.20850 -1.60436
		CHANNELS 3 Zrotation Xrotation Yrotation
		JOINT Spine1
		{
			OFFSET 0.00000 8.61716 0.00000
			CHANNELS 3 Zrotation Xrotation Yrotation
			JOINT Spine2
			{
				OFFSET 0.00000 8.61717 0.00000
				CHANNELS 3 Zrotation Xrotation Yrotation
				JOINT Spine3
				{
					OFFSET 0.00000 8.61717 0.00000
					CHANNELS 3 Zrotation Xrotation Yrotation
					JOINT Neck
					{
						OFFSET 0.00000 11.07920 1.10792
						CHANNELS 3 Zrotation Xrotation Yrotation
						JOINT Neck1
						{
							OFFSET 0.00000 7.08032 0.00000
							CHANNELS 3 Zrotation Xrotation Yrotation
							JOINT Head
							{
								OFFSET 0.00000 7.08031 0.00000
								CHANNELS 3 Zrotation Xrotation Yrotation
								End site
								{
									OFFSET 0.00000 0.00000 0.00000
								}
							}
						}
					}
					JOINT RightShoulder
					{
						OFFSET -0.01000 7.91373 5.19711
						CHANNELS 3 Zrotation Xrotation Yrotation
						JOINT RightArm
						{
							OFFSET -18.41580 0.00000 0.00000
							CHANNELS 3 Zrotation Xrotation Yrotation
							JOINT RightForeArm
							{
								OFFSET -29.11090 0.00000 0.00000
								CHANNELS 3 Zrotation Xrotation Yrotation
								JOINT RightHand
								{
									OFFSET -24.65040 0.00000 0.00000
									CHANNELS 3 Zrotation Xrotation Yrotation
									JOINT RightHandThumb1
									{
										OFFSET -5.35114 -0.85590 3.97906
										CHANNELS 3 Zrotation Xrotation Yrotation
										JOINT RightHandThumb2
										{
											OFFSET -4.52789 0.00000 0.00000
											CHANNELS 3 Zrotation Xrotation Yrotation
											JOINT RightHandThumb3
											{
												OFFSET -2.46976 0.00000 0.00000
												CHANNELS 3 Zrotation Xrotation Yrotation
												End site
												{
													OFFSET 0.00000 0.00000 0.00000
												}
											}
										}
									}
									JOINT RightHandIndex1
									{
										OFFSET -14.26970 0.00000 2.88139
										CHANNELS 3 Zrotation Xrotation Yrotation
										JOINT RightHandIndex2
										{
											OFFSET -5.48836 0.00000 0.00000
											CHANNELS 3 Zrotation Xrotation Yrotation
											JOINT RightHandIndex3
											{
												OFFSET -3.01859 0.00000 0.00000
												CHANNELS 3 Zrotation Xrotation Yrotation
												End site
												{
													OFFSET 0.00000 0.00000 0.00000
												}
											}
										}
									}
									JOINT RightHandMiddle1
									{
										OFFSET -14.26970 0.00000 -0.09147
										CHANNELS 3 Zrotation Xrotation Yrotation
										JOINT RightHandMiddle2
										{
											OFFSET -6.17441 0.00000 0.00000
											CHANNELS 3 Zrotation Xrotation Yrotation
											JOINT RightHandMiddle3
											{
												OFFSET -3.56743 0.00000 0.00000
												CHANNELS 3 Zrotation Xrotation Yrotation
												End site
												{
													OFFSET 0.00000 0.00000 0.00000
												}
											}
										}
									}
									JOINT RightHandRing1
									{
										OFFSET -12.69180 0.00000 -3.06433
										CHANNELS 3 Zrotation Xrotation Yrotation
										JOINT RightHandRing2
										{
											OFFSET -5.62556 0.00000 0.00000
											CHANNELS 3 Zrotation Xrotation Yrotation
											JOINT RightHandRing3
											{
												OFFSET -3.56744 0.00000 0.00000
												CHANNELS 3 Zrotation Xrotation Yrotation
												End site
												{
													OFFSET 0.00000 0.00000 0.00000
												}
											}
										}
									}
									JOINT RightHandPinky1
									{
										OFFSET -11.11390 0.00000 -6.03719
										CHANNELS 3 Zrotation Xrotation Yrotation
										JOINT RightHandPinky2
										{
											OFFSET -4.52789 0.00000 0.00000
											CHANNELS 3 Zrotation Xrotation Yrotation
											JOINT RightHandPinky3
											{
												OFFSET -2.46976 0.00000 0.00000
												CHANNELS 3 Zrotation Xrotation Yrotation
												End site
												{
													OFFSET 0.00000 0.00000 0.00000
												}
											}
										}
									}
								}
							}
						}
					}
					JOINT LeftShoulder
					{
						OFFSET 0.01000 7.91373 5.19711
						CHANNELS 3 Zrotation Xrotation Yrotation
						JOINT LeftArm
						{
							OFFSET 18.41580 0.00000 0.00000
							CHANNELS 3 Zrotation Xrotation Yrotation
							JOINT LeftForeArm
							{
								OFFSET 29.11090 0.00000 0.00000
								CHANNELS 3 Zrotation Xrotation Yrotation
								JOINT LeftHand
								{
									OFFSET 24.65040 0.00000 0.00000
									CHANNELS 3 Zrotation Xrotation Yrotation
									JOINT LeftHandThumb1
									{
										OFFSET 5.35114 -0.85590 3.97906
										CHANNELS 3 Zrotation Xrotation Yrotation
										JOINT LeftHandThumb2
										{
											OFFSET 4.52789 0.00000 0.00000
											CHANNELS 3 Zrotation Xrotation Yrotation
											JOINT LeftHandThumb3
											{
												OFFSET 2.46977 0.00000 0.00000
												CHANNELS 3 Zrotation Xrotation Yrotation
												End site
												{
													OFFSET 0.00000 0.00000 0.00000
												}
											}
										}
									}
									JOINT LeftHandIndex1
									{
										OFFSET 14.26970 0.00000 2.88139
										CHANNELS 3 Zrotation Xrotation Yrotation
										JOINT LeftHandIndex2
										{
											OFFSET 5.48836 0.00000 0.00000
											CHANNELS 3 Zrotation Xrotation Yrotation
											JOINT LeftHandIndex3
											{
												OFFSET 3.01859 0.00000 0.00000
												CHANNELS 3 Zrotation Xrotation Yrotation
												End site
												{
													OFFSET 0.00000 0.00000 0.00000
												}
											}
										}
									}
									JOINT LeftHandMiddle1
									{
										OFFSET 14.26970 0.00000 -0.09147
										CHANNELS 3 Zrotation Xrotation Yrotation
										JOINT LeftHandMiddle2
										{
											OFFSET 6.17440 0.00000 0.00000
											CHANNELS 3 Zrotation Xrotation Yrotation
											JOINT LeftHandMiddle3
											{
												OFFSET 3.56744 0.00000 0.00000
												CHANNELS 3 Zrotation Xrotation Yrotation
												End site
												{
													OFFSET 0.00000 0.00000 0.00000
												}
											}
										}
									}
									JOINT LeftHandRing1
									{
										OFFSET 12.69180 0.00000 -3.06433
										CHANNELS 3 Zrotation Xrotation Yrotation
										JOINT LeftHandRing2
										{
											OFFSET 5.62556 0.00000 0.00000
											CHANNELS 3 Zrotation Xrotation Yrotation
											JOINT LeftHandRing3
											{
												OFFSET 3.56744 0.00000 0.00000
												CHANNELS 3 Zrotation Xrotation Yrotation
												End site
												{
													OFFSET 0.00000 0.00000 0.00000
												}
											}
										}
									}
									JOINT LeftHandPinky1
									{
										OFFSET 11.11390 0.00000 -6.03719
										CHANNELS 3 Zrotation Xrotation Yrotation
										JOINT LeftHandPinky2
										{
											OFFSET 4.52789 0.00000 0.00000
											CHANNELS 3 Zrotation Xrotation Yrotation
											JOINT LeftHandPinky3
											{
												OFFSET 2.46976 0.00000 0.00000
												CHANNELS 3 Zrotation Xrotation Yrotation
												End site
												{
													OFFSET 0.00000 0.00000 0.00000
												}
											}
										}
									}
								}
							}
						}
					}
					JOINT pCube4
					{
						OFFSET 0.00000 10.91090 1.10792
						CHANNELS 3 Zrotation Xrotation Yrotation
						End site
						{
							OFFSET 0.00000 0.00000 0.00000
						}
					}
				}
			}
		}
	}
	JOINT RightUpLeg
	{
		OFFSET -9.98441 0.00000 0.00000
		CHANNELS 3 Zrotation Xrotation Yrotation
		JOINT RightLeg
		{
			OFFSET 0.00000 -42.11790 0.00000
			CHANNELS 3 Zrotation Xrotation Yrotation
			JOINT RightFoot
			{
				OFFSET 0.00000 -45.00020 -0.00001
				CHANNELS 3 Zrotation Xrotation Yrotation
				JOINT RightForeFoot
				{
					OFFSET 0.00000 -3.74820 0.00000
					CHANNELS 3 Zrotation Xrotation Yrotation
					JOINT RightToeBase
					{
						OFFSET 0.00000 0.06325 14.43120
						CHANNELS 3 Zrotation Xrotation Yrotation
						End site
						{
							OFFSET 0.00000 0.00000 0.00000
						}
					}
				}
			}
		}
	}
	JOINT LeftUpLeg
	{
		OFFSET 9.98441 0.00000 0.00000
		CHANNELS 3 Zrotation Xrotation Yrotation
		JOINT LeftLeg
		{
			OFFSET 0.00000 -42.11800 0.00000
			CHANNELS 3 Zrotation Xrotation Yrotation
			JOINT LeftFoot
			{
				OFFSET 0.00000 -45.00070 0.00000
				CHANNELS 3 Zrotation Xrotation Yrotation
				JOINT LeftForeFoot
				{
					OFFSET 0.00000 -3.74824 0.00000
					CHANNELS 3 Zrotation Xrotation Yrotation
					JOINT LeftToeBase
					{
						OFFSET 0.00000 0.06325 14.43110
						CHANNELS 3 Zrotation Xrotation Yrotation
						End site
						{
							OFFSET 0.00000 0.00000 0.00000
						}
					}
				}
			}
		}
	}
}
MOTION
Frames: 4
Frame Time: 0.050000
-0.015397482095921872 -0.005437629804070472 -0.02594289880312188 0.02503033719469211 0.02763731712240063 -0.008372462807863752 -3.6747817814187935 3.0729707656528906 -0.6829443120384494 -0.8192210382263417 3.350189426726078 0.3561388390622011 -0.9426675468161907 -1.3252430560404724 -2.211351717412331 -0.33057100785202476 0.44718942879845053 -1.0597358887176422 -0.8533019967000713 10.456796030438543 1.5108485598956727 -0.15956992939676456 -0.8663921011778636 1.773301208239315 -0.5094090332109975 -15.726882081874454 0.16668899564472656 0.5051418984958915 0.6002475761729702 -11.33730423313952 69.13050106392251 23.67301145603402 9.079230795317928 20.56029288613869 5.871745332572431 81.83013833073012 25.68083522550937 -0.14827222803010848 -6.269012784200538 4.553401602965727 -0.13324748288908295 -1.575510961738252 0.019614205232055683 0.00302303262782312 -56.185748866010556 0.005734579114881145 0.026725887599548033 -56.25610994387707 -38.74493386408634 0.025760806562375102 -0.029081835799338852 0.022124922769677657 0.00960644703510437 0.013426745213460742 0.030087305880640416 -0.04623781120930287 -0.022722200513867738 -36.713868156914245 -0.03927381886861912 0.012698061797963097 0.03129090067139547 0.021380076565502445 0.004297395876914465 -0.029929051640167813 0.02553069864971364 -0.018826776322574738 -19.711445567744644 0.04389031928760462 -0.011231040815916053 -0.001047187633517255 0.0439471792482407 -0.009142541221512358 0.02535113981515217 -0.042908185304605745 -0.04017692568374211 24.009081515131307 -0.007180625669711201 -0.012746885859993694 28.828250823816976 0.028945063079306554 -0.01597954427653566 28.89087398092578 -0.033289753433350056 -0.008355967883915242 3.5670165282948854 1.1373864369462094 9.95577458771416 -62.81692920066379 26.1699359808891 -21.649590023132557 -42.12761048042531 6.456276605313919 -81.99428417982531 -16.203832500630032 1.5496893047386602 -0.7582098771795439 -0.4389913718696644 0.06492668589608139 -8.092183456366433 0.029033841006859653 0.04363240097991139 44.614555215506215 -0.03085553319377755 0.04629333713203277 44.61630931227343 12.495743377940716 0.03185363038583006 -0.0008858125320750353 0.004287344675396751 -0.0022953706259637345 0.03798219460591989 -0.045140708680002604 -0.006343224140832777 -0.01371006473744226 11.0892544668328 -0.030610349672804342 0.027072646140371446 -0.004445688040472834 -0.0218623686572439 -0.003582775260899805 -0.03300400119308913 0.0280830432134967 0.02158877365043347 4.779509089135986 0.03130020596011909 -0.037888816230784605 0.03338468940714404 0.04685498726676584 0.02990410957007951 0.04381804298945814 0.028206978010804667 -0.03230724998890167 -5.619448189408685 -0.005384966599692239 0.01160151015947372 -6.683768856699778 -0.034060432949961125 0.0300155418127276 -6.744619996328985 0.01573235794711249 0.002527567193126683 0.024865138107187764 0.021835611298028027 0.025593751084118394 8.031177260395424 3.5236482066662376 -19.266793904751733 -0.004201357678554794 10.43320562477526 0.01393187466743961 -5.670562212800944 -15.67471799092016 3.154059384717607 -0.010071649437382056 0.03335291969596714 -0.03661864416509439 0.042919026738942996 4.663775260358728 -0.043314767518717094 12.438711995497801 -8.23548561505479 6.881708311444043 -0.013265883835559288 46.402750267754705 0.014731697298917965 -4.341101826138762 -14.736737139310192 -3.8168569916957615 -0.04105336722137652 -0.044572283119180815 0.03176326223628176 0.03671309262827636 -10.75590547329057 0.01590838327275544 
0.0363386020994869 0.024337483777345924 -0.005737469569277374 -0.027121428895791323 -0.026628325975570456 -0.01488964031527871 -3.7794842182111434 3.1190141748060958 -0.5977641648456342 -0.8440188174641653 3.3697981146078027 0.30151109594741154 -1.0167590207352064 -1.343199324254149 -1.8741534324527644 -0.3939560670400263 0.4170689267027332 -1.0379424014571101 -0.7796284263277784 10.376112701902024 1.6133707764777252 -0.12408324734031369 -0.9027692481914915 1.668861562041082 -0.5024194995175345 -15.884437572993212 0.2016758540672854 0.46513239901124676 0.6556762374500148 -11.659182330166987 69.61868470491478 24.20102821721464 7.133051908856177 16.468921976815782 5.788265713791539 75.38854007213229 26.138898378016282 -0.17929533652317906 -5.967751669155682 4.546889176917265 -0.13800201207446336 -1.6400121020863359 -0.04120417538146837 0.04514353959467652 -56.214187161868736 0.03230820052055196 0.008940271529718253 -56.213438625236115 -38.80589180889261 0.010502668606462384 0.010793364745759487 -0.046259106867796475 -0.033967041721064545 0.025763706996732774 -0.04395630222592552 -0.029333074533710802 -0.035290688180011964 -36.67719297670166 -0.04043239226437587 -0.017663052161236086 -0.028652026491799508 -0.005970467426984368 0.0052943240767086485 0.028631911078861972 0.023912619507353183 -0.030887416395340116 -19.771629953570972 0.010473306857112742 0.014108904230073634 -0.04677981769263795 0.027704259814886202 -0.01690672104750897 -0.011246641497464873 0.013888806855819195 -0.03843426733514125 24.079429312898245 -0.04401407752579002 -0.005956853109779029 28.849006284570947 -0.045486511860930126 0.037540637332708175 28.863875094631105 -0.03663157775018053 0.04993760352986768 2.998819240007708 0.9928385475147732 10.346101697851305 -64.85653700775696 25.926784454627143 -16.728964313708737 -38.99157140812868 6.841973503019135 -75.82441824882365 -15.848208492973253 1.9635241911598942 -0.7025609387564808 -0.4464812855694313 0.10006693144023869 -8.127254028427126 -0.017062838740733322 0.023483057078463047 44.59835559706059 0.02470330713269603 -0.02656651514244807 44.58349613604317 12.468031573852544 0.012828011941181616 0.0017292031804225945 -0.016415264432045558 -0.016260586381541837 0.031225101284567285 0.02618762683505363 0.0005125305699807164 -0.0027416708097361504 11.10437395115332 0.012916377641146752 -0.008229975435775173 0.009035359901722927 0.043302058471550255 0.04061767534207526 -0.03792141402167758 0.04056159654340773 -0.04473312043469661 4.756586354230557 0.019701891178492234 0.026018272275502137 -0.0024602356855206987 0.020689412910352725 0.02539896482173826 0.04246545097882792 0.01331217969507916 -0.04073743006345725 -5.580828718166765 0.004178359589265022 -0.03613200422982312 -6.704837083503154 0.04395263894538944 0.016013985505962926 -6.722638585325384 -0.04975376183520278 -0.002305483430471281 -0.02596789071436935 0.04810943735551439 -0.022312084529732542 8.02989342745038 3.4794245519573397 -19.242589151914423 -0.0046449239551010785 10.350187174599503 0.007698349528796696 -5.628424459455346 -15.682176352807687 3.2321993619501073 -0.03085282730708808 0.01834796528279588 0.047415155953826164 -0.025307216704525702 4.724175271418992 0.007503898511760529 12.473725730842746 -8.221638243552936 6.892998639669259 0.02686460118765595 46.37327006657638 0.036789491420004386 -4.282582143264514 -14.794731242743115 -3.8166008936862243 0.016921723990003548 0.03291569122601571 0.013078874990575147 0.0334228661277082 -10.7847428208634 0.043891167019448785 
-0.03495516251995393 0.0058436996637434985 0.028878168156192097 0.034989617575867334 0.027053349204650058 0.03670215000070956 -3.8059371341990462 3.0010336961873203 -0.5946754673940253 -0.8134249276064641 3.4189405126738897 0.315901623297067 -1.034766637486572 -1.3765125054083975 -1.6457785634061406 -0.42144873206117345 0.4317409962030318 -0.9095407411922325 -0.7395320169869181 10.357943901831844 1.5921197363192996 -0.12046121331079832 -0.9706620859893217 1.554695446471291 -0.43898550681823734 -15.939239278425731 0.14113682153927895 0.2992213037054332 0.6794374651318688 -11.90820812718632 69.97507816475118 24.559895821722762 5.497424222406563 13.082881856713929 5.201896773922901 69.92729832379136 26.53933710289776 -0.14272748119099543 -5.658068547912814 4.502430450472073 -0.11501496333584006 -1.558808792346851 0.005381015521206736 0.03842207233201084 -56.207587684105945 -0.00028806238686432726 -0.03302752497196114 -56.2319465355857 -38.726798317185505 0.02605635838425939 0.02180835149185065 -0.03639107955918066 -0.020460109350105483 0.027891580384643226 0.004168316793178279 -0.02203272969682957 -0.04427076274462553 -36.6794947079415 -0.005762436700484187 0.04412256140804027 0.028540128805004564 -0.0032750046862996354 0.021712256725280613 -0.005075661447367171 0.009415811224727105 0.003758264618050268 -19.746240433206008 -0.02088058460402126 -0.041401578177065676 0.01750873482580714 -0.01599612155913484 0.033009850636022194 0.004531922761535725 -0.043798426269230924 0.0037078574626248613 24.05034660990938 0.02829759170851154 0.037718321854405996 28.861359553577117 -0.019845050048507805 -0.01856336233676195 28.891665244171627 0.03256648515248 0.036877576884513756 2.6791832093854246 0.9610872096851337 10.635889314046436 -66.57802237094053 25.800146171341087 -13.049514908867378 -36.99081711237164 7.028821314146498 -70.44634054593486 -15.617065747768326 2.1332302481621612 -0.6435790313108669 -0.45471584852158087 0.09144203515299562 -8.10352724876563 -0.000596891132291415 -0.008433068047761762 44.57461104820215 -0.026134612551426645 -0.046168317907311844 44.60245921518194 12.423284805073013 -0.04310196431810796 0.020419589054880626 -0.0063218973847490355 0.010008232504023416 0.020924908004174233 -0.0065929573376998256 0.011669661387547972 0.01784798968695903 11.092431267874087 0.035424554374544066 -0.004858818826930055 0.040844580049150946 0.027535509419793054 -0.03504968951432456 0.0038351750973655064 -0.013813114058147821 -0.0006363262941747286 4.803766781468003 -0.02811879581819355 -0.019363392342708566 0.017759323920064303 0.027857890558446674 0.019208536146505056 -0.028978344082349502 -0.04512021577001237 -0.027818205136656858 -5.648798399478358 0.012381702352575177 0.03927931711309063 -6.704064391576762 -0.020024426721644794 0.014895724157673217 -6.687762022902058 -0.012437680496815146 0.024053159530768822 -0.014147334423125721 -0.00975661948116716 -0.04578737646139786 8.072794443408293 3.526645249813367 -19.258663282178624 0.016130252225377936 10.374942847290235 0.04955353245828763 -5.5710858787408934 -15.615678304395884 3.1941632383243825 0.03037788250449297 0.010284966207954644 -0.041931133588153376 -0.02096563897367431 4.659389702168791 0.007354279252994091 12.46374035912796 -8.252088274949632 6.911268943397178 0.042574031668486036 46.40617681825471 -0.01354904399101329 -4.305910478421396 -14.740343939220793 -3.865825829505396 0.03570333967767936 0.011545062562498595 0.02940163331656905 -0.0076472347279019194 -10.71291113948108 -0.018560747618927717 
-0.008974200008684308 -0.03529158669320151 -0.023772849831746344 -0.048638485867055305 -0.03150174267028448 0.013042068357299125 -3.8109198310611156 2.8048984825842966 -0.5808851526833673 -0.8367358163332842 3.4096350875735246 0.38334661849955437 -1.1105315194441696 -1.4271903406040691 -1.5449531499937363 -0.4277099418241896 0.4056991700970473 -0.883473998234934 -0.6844452923973092 10.318583831134507 1.584598190764193 -0.13732058675920777 -0.9038651853331588 1.2971766890384613 -0.3986879713026695 -15.944347058743851 0.11793112895448143 0.015478580053409914 0.8127175847529332 -12.160439042539469 70.39267617372265 24.583827653663793 4.276389418491937 9.830640074999334 3.8545750083683514 66.96881867144384 26.33851891359982 -0.2133405732968949 -5.270435230311247 4.511029779276739 -0.17534720067425316 -1.5939677263216832 -0.040492007872460614 0.037585515465369077 -56.26962957305532 0.041004692535864175 -0.02191442209032539 -56.25201681694348 -38.78851691417344 0.009954368223228009 0.04598730104004248 0.004762779066386381 -0.014883193009052146 0.04525415636070782 -0.004965294671279294 -0.01900294698021094 -0.000667296474577817 -36.72478634757519 0.022531643187238177 0.005051969786926917 0.04086277749409156 0.029735206157133237 -0.03782931422900641 0.0058341900212375225 -0.00424086378448898 0.01804582997981792 -19.761037990456284 -0.03657727265546877 0.013653203307330402 0.011176315138148821 -0.0013068157748669631 -0.040511644625427765 0.03365268839047671 0.025300824139401098 -0.048039560804317906 24.06879824194759 -0.03309014111600309 -0.03662680335496256 28.831909107157866 -0.0301003611464254 0.030416532998518837 28.843230262384967 -0.04915481645118934 0.039695791245456816 2.5462956004481505 0.9702542779875508 10.939947180034881 -67.75464070851739 25.865217576385135 -10.654815442728045 -34.11093150294089 6.39850631141976 -66.49774231061042 -15.09911525623177 2.2529325694128755 -0.6041644743076807 -0.51459526516154 0.11731383823834696 -8.093677692133838 0.02156099281478687 0.007501358339234376 44.558880991840965 0.03447183215472902 0.012009025101276778 44.51929139540279 12.480245205690736 0.017270928459003177 0.0050076528835224406 0.011916955618388243 -0.004947171515201001 0.038927496265632675 -0.002109214690755713 -0.02625683815138159 -0.039101712018303786 11.090505865936663 -0.01529351156949388 -0.030876340854707578 0.004772301585263073 0.018221629740221124 0.040080564160502784 0.009946293391275073 -0.03007736759155856 -0.03578892476224075 4.815794698620369 0.0293187118238997 -0.0240391029018348 -0.023211368746131108 0.014571214393144502 0.042203098679239444 -0.020773282261843756 0.015151787570278878 0.033341853513456504 -5.598721816151938 -0.012327437914479723 0.005527548096007371 -6.6752698807311335 0.01223622317668163 -0.034400395804890134 -6.752774772646033 -0.04079161982776125 -0.02693806011573047 0.0037734313033571543 -0.044445221620592106 0.0023840939063490036 8.092518115671938 3.5031230150339367 -19.222556394404 -0.02823516312061069 10.383914342033064 0.039384951083133876 -5.596971547534913 -15.651223504500997 3.188155185754473 9.625456829721135e-05 0.0033815593486151234 0.04793996287377479 -0.01234965330063895 4.651567643032686 -0.03781455095135151 12.417100215350965 -8.253528931160588 6.886231803827822 0.03189782801347536 46.39435767460541 -0.0036405009739873557 -4.324696784244372 -14.772413540539429 -3.8723108543165563 0.025947992402217804 -0.04425452945575038 -0.014017587257542154 0.016555828018710764 -10.763277956516585 -0.04341797650932297 
